<mxfile host="app.diagrams.net" agent="Mozilla/5.0 (Windows NT 10.0; Win64; x64) AppleWebKit/537.36 (KHTML, like Gecko) Chrome/137.0.0.0 Safari/537.36 Edg/137.0.0.0" version="27.1.6" pages="2">
  <diagram name="Page-1" id="_8aUbpZmku1E_gVZOcAK">
    <mxGraphModel dx="1017" dy="1727" grid="1" gridSize="10" guides="1" tooltips="1" connect="1" arrows="1" fold="1" page="1" pageScale="1" pageWidth="827" pageHeight="1169" math="0" shadow="0">
      <root>
        <mxCell id="0" />
        <mxCell id="1" parent="0" />
        <mxCell id="L2mwO1jkiz1dDSLct9FT-3" style="edgeStyle=none;curved=1;rounded=0;orthogonalLoop=1;jettySize=auto;html=1;entryX=0.5;entryY=0;entryDx=0;entryDy=0;fontSize=12;startSize=8;endSize=8;" edge="1" parent="1" source="_-dR4qQRfHYjs2IPDq90-1" target="_-dR4qQRfHYjs2IPDq90-4">
          <mxGeometry relative="1" as="geometry" />
        </mxCell>
        <mxCell id="L2mwO1jkiz1dDSLct9FT-6" style="edgeStyle=none;curved=1;rounded=0;orthogonalLoop=1;jettySize=auto;html=1;exitX=0.5;exitY=1;exitDx=0;exitDy=0;fontSize=12;startSize=8;endSize=8;" edge="1" parent="1" source="_-dR4qQRfHYjs2IPDq90-1" target="_-dR4qQRfHYjs2IPDq90-3">
          <mxGeometry relative="1" as="geometry" />
        </mxCell>
        <mxCell id="_-dR4qQRfHYjs2IPDq90-1" value="&lt;div&gt;&lt;div&gt;User&lt;/div&gt;&lt;div&gt;-------&lt;/div&gt;&lt;div&gt;&lt;b&gt;&lt;u&gt;user_id (PK)&lt;/u&gt;&lt;/b&gt;&lt;/div&gt;&lt;div&gt;name&lt;/div&gt;&lt;div&gt;email&lt;/div&gt;&lt;/div&gt;&lt;div&gt;&lt;br&gt;&lt;/div&gt;&lt;div&gt;&lt;br&gt;&lt;/div&gt;&lt;div&gt;&lt;br&gt;&lt;/div&gt;" style="rounded=0;whiteSpace=wrap;html=1;" parent="1" vertex="1">
          <mxGeometry x="70" y="-130" width="220" height="120" as="geometry" />
        </mxCell>
        <mxCell id="L2mwO1jkiz1dDSLct9FT-7" style="edgeStyle=none;curved=1;rounded=0;orthogonalLoop=1;jettySize=auto;html=1;entryX=0;entryY=0.5;entryDx=0;entryDy=0;fontSize=12;startSize=8;endSize=8;" edge="1" parent="1" source="_-dR4qQRfHYjs2IPDq90-2" target="_-dR4qQRfHYjs2IPDq90-3">
          <mxGeometry relative="1" as="geometry" />
        </mxCell>
        <mxCell id="L2mwO1jkiz1dDSLct9FT-8" style="edgeStyle=none;curved=1;rounded=0;orthogonalLoop=1;jettySize=auto;html=1;entryX=0;entryY=0.5;entryDx=0;entryDy=0;fontSize=12;startSize=8;endSize=8;" edge="1" parent="1" source="_-dR4qQRfHYjs2IPDq90-2" target="_-dR4qQRfHYjs2IPDq90-4">
          <mxGeometry relative="1" as="geometry" />
        </mxCell>
        <mxCell id="L2mwO1jkiz1dDSLct9FT-9" style="edgeStyle=none;curved=1;rounded=0;orthogonalLoop=1;jettySize=auto;html=1;fontSize=12;startSize=8;endSize=8;" edge="1" parent="1" source="_-dR4qQRfHYjs2IPDq90-2" target="_-dR4qQRfHYjs2IPDq90-6">
          <mxGeometry relative="1" as="geometry" />
        </mxCell>
        <mxCell id="_-dR4qQRfHYjs2IPDq90-2" value="&lt;div&gt;Property&lt;/div&gt;&lt;div&gt;----------&lt;/div&gt;&lt;div&gt;&lt;b&gt;&lt;u&gt;property_id (PK)&lt;/u&gt;&lt;/b&gt;&lt;/div&gt;&lt;div&gt;&lt;b&gt;&lt;u&gt;owner_id (FK)&lt;/u&gt;&lt;/b&gt;&lt;/div&gt;&lt;div&gt;address&lt;/div&gt;&lt;div&gt;&lt;br&gt;&lt;/div&gt;" style="rounded=0;whiteSpace=wrap;html=1;" parent="1" vertex="1">
          <mxGeometry x="40" y="90" width="150" height="90" as="geometry" />
        </mxCell>
        <mxCell id="_-dR4qQRfHYjs2IPDq90-3" value="&lt;div&gt;Booking&lt;/div&gt;&lt;div&gt;----------&lt;/div&gt;&lt;div&gt;&lt;b&gt;&lt;u&gt;booking_id (PK)&lt;/u&gt;&lt;/b&gt;&lt;/div&gt;&lt;div&gt;&lt;b&gt;&lt;u&gt;user_id (FK)&lt;/u&gt;&lt;/b&gt;&lt;/div&gt;&lt;div&gt;&lt;b&gt;&lt;u&gt;property_id (FK)&lt;/u&gt;&lt;/b&gt;&lt;/div&gt;&lt;div&gt;date&lt;/div&gt;&lt;div&gt;&lt;br&gt;&lt;/div&gt;" style="rounded=0;whiteSpace=wrap;html=1;" parent="1" vertex="1">
          <mxGeometry x="200" y="140" width="140" height="100" as="geometry" />
        </mxCell>
        <mxCell id="_-dR4qQRfHYjs2IPDq90-4" value="&lt;div&gt;Review&lt;/div&gt;&lt;div&gt;---------&lt;/div&gt;&lt;div&gt;&lt;b&gt;&lt;u&gt;review_id (PK)&lt;/u&gt;&lt;/b&gt;&lt;/div&gt;&lt;div&gt;&lt;u&gt;&lt;b&gt;user_id (FK)&amp;nbsp; &lt;/b&gt;&lt;/u&gt;&amp;nbsp; &amp;nbsp; &amp;nbsp;→ references User.user_id&lt;/div&gt;&lt;div&gt;&lt;b&gt;&lt;u&gt;property_id (FK)&amp;nbsp; &lt;/u&gt;&lt;/b&gt;&amp;nbsp;→ references Property.property_id&lt;/div&gt;&lt;div&gt;&lt;b&gt;&lt;u&gt;booking_id (FK)&amp;nbsp;&lt;/u&gt;&lt;/b&gt; &amp;nbsp; → references Booking.booking_id&lt;/div&gt;&lt;div&gt;rating&lt;/div&gt;&lt;div&gt;comment&lt;/div&gt;&lt;div&gt;review_date&lt;/div&gt;&lt;div&gt;&lt;br&gt;&lt;/div&gt;" style="rounded=0;whiteSpace=wrap;html=1;" parent="1" vertex="1">
          <mxGeometry x="360" y="-60" width="120" height="240" as="geometry" />
        </mxCell>
        <mxCell id="L2mwO1jkiz1dDSLct9FT-10" style="edgeStyle=none;curved=1;rounded=0;orthogonalLoop=1;jettySize=auto;html=1;entryX=1;entryY=0.5;entryDx=0;entryDy=0;fontSize=12;startSize=8;endSize=8;" edge="1" parent="1" source="_-dR4qQRfHYjs2IPDq90-5" target="_-dR4qQRfHYjs2IPDq90-6">
          <mxGeometry relative="1" as="geometry" />
        </mxCell>
        <mxCell id="_-dR4qQRfHYjs2IPDq90-5" value="&lt;div&gt;Amenity&lt;/div&gt;&lt;div&gt;---------&lt;/div&gt;&lt;div&gt;&lt;b&gt;&lt;u&gt;amenity_id (PK)&lt;/u&gt;&lt;/b&gt;&lt;/div&gt;&lt;div&gt;name&lt;/div&gt;&lt;div&gt;description&lt;/div&gt;&lt;div&gt;&lt;br&gt;&lt;/div&gt;" style="rounded=0;whiteSpace=wrap;html=1;" parent="1" vertex="1">
          <mxGeometry x="340" y="310" width="120" height="90" as="geometry" />
        </mxCell>
        <mxCell id="_-dR4qQRfHYjs2IPDq90-6" value="&lt;div&gt;PropertyAmenity&lt;/div&gt;&lt;div&gt;--------------------------&lt;/div&gt;&lt;div&gt;&lt;b&gt;&lt;u&gt;property_id &lt;/u&gt;&lt;/b&gt;(PK, FK)&amp;nbsp; → references Property.property_id&lt;/div&gt;&lt;div&gt;&lt;b&gt;&lt;u&gt;amenity_id (PK, FK)&amp;nbsp;&lt;/u&gt;&lt;/b&gt; &amp;nbsp;→ references Amenity.amenity_id&lt;/div&gt;&lt;div&gt;&lt;br&gt;&lt;/div&gt;" style="rounded=0;whiteSpace=wrap;html=1;" parent="1" vertex="1">
          <mxGeometry y="260" width="210" height="190" as="geometry" />
        </mxCell>
        <mxCell id="L2mwO1jkiz1dDSLct9FT-5" style="edgeStyle=none;curved=1;rounded=0;orthogonalLoop=1;jettySize=auto;html=1;entryX=0.419;entryY=-0.006;entryDx=0;entryDy=0;entryPerimeter=0;fontSize=12;startSize=8;endSize=8;" edge="1" parent="1" source="_-dR4qQRfHYjs2IPDq90-1" target="_-dR4qQRfHYjs2IPDq90-2">
          <mxGeometry relative="1" as="geometry" />
        </mxCell>
      </root>
    </mxGraphModel>
  </diagram>
  <diagram id="OnGDpb4anGEsYQpuzcIe" name="Page-2">
    <mxGraphModel dx="778" dy="558" grid="0" gridSize="10" guides="1" tooltips="1" connect="1" arrows="1" fold="1" page="0" pageScale="1" pageWidth="827" pageHeight="1169" math="0" shadow="0">
      <root>
        <mxCell id="0" />
        <mxCell id="1" parent="0" />
      </root>
    </mxGraphModel>
  </diagram>
</mxfile>
